<?xml version="1.0" encoding="UTF-8"?>
<svg id="Layer_2" data-name="Layer 2" xmlns="http://www.w3.org/2000/svg" viewBox="0 0 68 68">
  <defs>
    <style>
      .cls-1 {
        fill: #9ace7c;
      }

      .cls-2 {
        fill: #fff;
      }
    </style>
  </defs>
  <g id="Layer_1-2" data-name="Layer 1">
    <rect class="cls-1" width="68" height="68"/>
    <circle class="cls-2" cx="34.12" cy="32.32" r="16.4"/>
    <path class="cls-2" d="M9.78,68h48.43c-1.63-11.93-11.85-21.12-24.22-21.12s-22.59,9.19-24.22,21.12Z"/>
    <path class="cls-1" d="M30.43,43.18c.04-2.01,1.67-3.62,3.69-3.62s3.65,1.62,3.69,3.62h1.19c-.04-2.66-2.21-4.81-4.88-4.81s-4.84,2.15-4.88,4.81h1.19Z"/>
    <path class="cls-1" d="M23.82,31.82c.04-2.01,1.67-3.62,3.69-3.62s3.65,1.62,3.69,3.62h1.19c-.04-2.66-2.21-4.81-4.88-4.81s-4.84,2.15-4.88,4.81h1.19Z"/>
    <path class="cls-1" d="M36.75,31.82c.04-2.01,1.67-3.62,3.69-3.62s3.65,1.62,3.69,3.62h1.19c-.04-2.66-2.21-4.81-4.88-4.81s-4.84,2.15-4.88,4.81h1.19Z"/>
    <circle class="cls-1" cx="27.54" cy="29.41" r="2.02"/>
    <circle class="cls-1" cx="40.46" cy="29.41" r="2.02"/>
  </g>
</svg>