<?xml version="1.0" encoding="UTF-8"?>
<svg id="Layer_2" data-name="Layer 2" xmlns="http://www.w3.org/2000/svg" viewBox="0 0 14.74 16.11">
  <defs>
    <style>
      .cls-1 {
        fill: #e3ea98;
      }
    </style>
  </defs>
  <g id="Layer_1-2" data-name="Layer 1">
    <g>
      <path class="cls-1" d="M13.95,1.33h-5.29V.29c0-.16-.13-.29-.29-.29h-1.78c-.16,0-.29.13-.29.29v1.04H.79c-.44,0-.79.35-.79.79v.47c0,.44.35.79.79.79h13.16c.44,0,.79-.35.79-.79v-.47c0-.44-.35-.79-.79-.79Z"/>
      <path class="cls-1" d="M12.74,4.3H1.99c-.67,0-1.19.38-1.12.81l1.52,10.33c.06.38.54.67,1.12.67h1.58l-1.27-8.9,2,8.9h3.32l2-8.9-1.27,8.9h1.41c.58,0,1.07-.29,1.12-.67l1.47-10.33c.06-.44-.46-.81-1.12-.81Z"/>
    </g>
  </g>
</svg>