<?xml version="1.0" encoding="UTF-8"?>
<svg id="Layer_2" data-name="Layer 2" xmlns="http://www.w3.org/2000/svg" viewBox="0 0 15.96 16.11">
  <defs>
    <style>
      .cls-1 {
        fill: #fff;
      }
    </style>
  </defs>
  <g id="Layer_1-2" data-name="Layer 1">
    <g>
      <path class="cls-1" d="M8.3,12.76l-1.73.74.31-1.86h0s.19-.25.19-.25c0,0,0,0,0,0l5.79-7.39V1.54c0-.85-.69-1.54-1.54-1.54H1.54C.69,0,0,.69,0,1.54v13.04c0,.85.69,1.54,1.54,1.54h9.8c.85,0,1.54-.69,1.54-1.54v-7.64l-4.37,5.58-.2.25ZM1.46,3.04h8.36v1.57H1.46v-1.57ZM4.56,11.5H1.46v-1.57h3.1v1.57ZM6.23,8.06H1.46v-1.57h4.77v1.57Z"/>
      <path class="cls-1" d="M15.84,2.63l-.92-.72c-.14-.11-.34-.08-.45.05l-1.6,2.04v2.93l3.02-3.85c.11-.14.08-.34-.05-.45Z"/>
    </g>
  </g>
</svg>